inDegrees=yes
name=ik_lifting_orientations
DataType=double
version=3
OpenSimVersion=4.5-2024-01-10-34fd6af
endheader
time	pelvis_tilt	pelvis_list	pelvis_rotation	pelvis_tx	pelvis_ty	pelvis_tz	hip_flexion_r	hip_adduction_r	hip_rotation_r	knee_angle_r	knee_angle_r_beta	ankle_angle_r	subtalar_angle_r	mtp_angle_r	hip_flexion_l	hip_adduction_l	hip_rotation_l	knee_angle_l	knee_angle_l_beta	ankle_angle_l	subtalar_angle_l	mtp_angle_l	lumbar_extension	lumbar_bending	lumbar_rotation	arm_flex_r	arm_add_r	arm_rot_r	elbow_flex_r	pro_sup_r	wrist_flex_r	wrist_dev_r	arm_flex_l	arm_add_l	arm_rot_l	elbow_flex_l	pro_sup_l	wrist_flex_l	wrist_dev_l
0.79	-6.782472985394851	-5.954899169221409	-97.3354410725279	0	0.9399999998679526	0	44.99670684104052	-10.06023451941473	0	59.99836309798371	1.047168981866881	-5.013141156332074	0	0	44.99670684104052	-10.06023451941473	0	59.99836309798371	1.047168981866881	-5.013141156332074	0	0	-14.39689676287685	10.1449628165246	25.20311129737095	3.30664741997224	-9.937288388584133	-23.59746251991125	0.02782718039831783	1.18973881031689	0	0	0	-12.33004963536102	0	88.83372655197613	1.18973881031689	0	0
0.8	-7.381264730811302	-6.425504236251999	-97.81439715720143	0	0.9399999998679526	0	44.99670772852722	-10.06017806897247	0	59.99836347537807	1.047168988453655	-5.013125105708622	0	0	44.99670772852722	-10.06017806897247	0	59.99836347537807	1.047168988453655	-5.013125105708622	0	0	-15.54736803017414	10.7493965831411	26.45974589084448	3.440038983087605	-10.44187628396595	-24.10869260348801	0.0279230973333974	1.189515369798093	0	0	0	-12.33041920404223	0	88.83394555142986	1.189515369798093	0	0
0.8100000000000001	-7.937712704179825	-6.847407251813912	-98.36271796915413	0	0.9399999998679526	0	44.99670884083439	-10.06010727493333	0	59.99836394789415	1.047168996700616	-5.013104977833206	0	0	44.99670884083439	-10.06010727493333	0	59.99836394789415	1.047168996700616	-5.013104977833206	0	0	-16.69450538847922	11.26937036170811	27.87089944495333	3.578792763397334	-10.97288001743375	-24.73017821985954	0.02802319376824466	1.18923541806666	0	0	0	-12.33088210349248	0	88.834219938887	1.18923541806666	0	0
0.82	-8.451038178589107	-7.223042690341205	-98.85636260864446	0	0.9399999998679526	0	44.9967097183645	-10.06005163833178	0	59.99836432162263	1.047169003223409	-5.013089174012501	0	0	44.9967097183645	-10.06005163833178	0	59.99836432162263	1.047169003223409	-5.013089174012501	0	0	-17.76502111243159	11.7569127542538	29.23722656807995	3.684261958115658	-11.50249064876483	-25.42757526898918	0.02832108278363267	1.189014324886877	0	0	0	-12.33124799732888	0	88.83443663766168	1.189014324886877	0	0
0.83	-8.886533335813246	-7.554655275734381	-99.22971134413152	0	0.9399999998679526	0	44.99671079581027	-10.05998288399035	0	59.99836477783698	1.047169011185851	-5.013069623632566	0	0	44.99671079581027	-10.05998288399035	0	59.99836477783698	1.047169011185851	-5.013069623632566	0	0	-18.84469267804275	12.22196294809892	30.21777537595587	3.891458958850674	-12.01855096530675	-25.81444540856808	0.02876390319829095	1.188743450741304	0	0	0	-12.33169543735327	0	88.83470212795011	1.188743450741304	0	0
0.84	-9.315127172831939	-7.86325108455625	-99.68667657514139	0	0.9399999998679526	0	44.99671214012697	-10.05989720524527	0	59.99836534730255	1.047169021124901	-5.013045270936018	0	0	44.99671214012697	-10.05989720524527	0	59.99836534730255	1.047169021124901	-5.013045270936018	0	0	-19.53432000669457	12.49918598771606	30.9959297930331	3.874834992655019	-12.202331563094	-25.94803378852828	0.0291622229688686	1.188405401697543	0	0	0	-12.33225394429119	0	88.83503345798032	1.188405401697543	0	0
0.85	-9.694835348583164	-8.144583893095893	-99.96075289692695	0	0.9399999998679526	0	44.99671316183484	-10.05983204900581	0	59.99836577957045	1.047169028669399	-5.013026753849346	0	0	44.99671316183484	-10.05983204900581	0	59.99836577957045	1.047169028669399	-5.013026753849346	0	0	-20.39150267521628	12.89644815399088	31.66258161444087	4.068398903975505	-12.63229678075931	-25.98953136737698	0.0291017063779126	1.188148577973954	0	0	0	-12.33267809887717	0	88.83528517711065	1.188148577973954	0	0
0.86	-10.08781304099413	-8.416586522920657	-100.2409772371669	0	0.9399999998679526	0	44.99671411230668	-10.05977155343547	0	59.9983661821305	1.047169035695397	-5.013009570536723	0	0	44.99671411230668	-10.05977155343547	0	59.9983661821305	1.047169035695397	-5.013009570536723	0	0	-21.229314385388	13.2762689985632	32.29513460432388	4.28839981603516	-13.06825211693704	-25.97571368007554	0.02922713419300511	1.187909546976577	0	0	0	-12.33307302012363	0	88.83551945716373	1.187909546976577	0	0
0.87	-10.56026890770294	-8.775661259306721	-100.5414838175539	0	0.9399999998679526	0	44.99671510459686	-10.05970898528407	0	59.99836660542634	1.047169043083303	-5.012991832634436	0	0	44.99671510459686	-10.05970898528407	0	59.99836660542634	1.047169043083303	-5.012991832634436	0	0	-22.15008676064149	13.73355855383733	32.69955303808067	4.591652020871813	-13.48150762038984	-25.77233766335108	0.02954178296939018	1.187659294203741	0	0	0	-12.33348747051008	0	88.83576473596878	1.187659294203741	0	0
0.88	-11.12858119066336	-9.171819371956394	-101.031359800696	0	0.9399999998679526	0	44.99671613597863	-10.05964432693657	0	59.99836704723118	1.047169050794252	-5.012973525267545	0	0	44.99671613597863	-10.05964432693657	0	59.99836704723118	1.047169050794252	-5.012973525267545	0	0	-23.15963998138598	14.1555958489246	33.48653253083467	4.845258800516135	-13.75986256437291	-25.74092488355361	0.02953930149021099	1.187398747404741	0	0	0	-12.33391957438157	0	88.83602010420992	1.187398747404741	0	0
0.89	-11.70860588932785	-9.557797481054378	-101.5247217420364	0	0.9399999998679526	0	44.99671721750672	-10.05957707445459	0	59.998367513349	1.047169058929543	-5.012954515481011	0	0	44.99671721750672	-10.05957707445459	0	59.998367513349	1.047169058929543	-5.012954515481011	0	0	-24.15721202441553	14.52436589880677	34.51998579188051	5.079851736227865	-14.07258414411078	-25.99817784668612	0.02918119102154733	1.18712487064794	0	0	0	-12.33437471153423	0	88.83628853748391	1.18712487064794	0	0
0.9	-12.08403054919995	-9.813394882130233	-101.8571824613966	0	0.9399999998679526	0	44.99671837220264	-10.05950549833714	0	59.99836801200983	1.047169067632816	-5.012934298954946	0	0	44.99671837220264	-10.05950549833714	0	59.99836801200983	1.047169067632816	-5.012934298954946	0	0	-24.89357103987169	14.76835442158465	35.29350280952308	5.351437716048136	-14.38603097225019	-26.261232677608	0.02857007308623685	1.186832215581021	0	0	0	-12.33486139822402	0	88.83657537584345	1.186832215581021	0	0
0.91	-12.27017927277033	-9.95482453350883	-102.0703239311686	0	0.9399999998679526	0	44.99671942014091	-10.05943907873433	0	59.99836845607594	1.047169075383232	-5.012915465630898	0	0	44.99671942014091	-10.05943907873433	0	59.99836845607594	1.047169075383232	-5.012915465630898	0	0	-25.41890080054693	14.90711809914293	35.77941443384062	5.616303812261202	-14.66924558023433	-26.36178806142355	0.02807271713685422	1.186568526893079	0	0	0	-12.33529721110618	0	88.83683382349977	1.186568526893079	0	0
0.92	-12.57414746161652	-10.12252512199779	-102.4259510844921	0	0.9399999998679526	0	44.99672048210086	-10.05937233362701	0	59.99836890897107	1.047169083287743	-5.012896572831598	0	0	44.99672048210086	-10.05937233362701	0	59.99836890897107	1.047169083287743	-5.012896572831598	0	0	-26.07657736832015	15.08844580167417	36.48802839156939	5.870138241425757	-14.98721825166514	-26.56646723067045	0.02783784568876275	1.186300634785301	0	0	0	-12.33574091834271	0	88.83709639104747	1.186300634785301	0	0
0.93	-12.79872511589209	-10.2431737474188	-102.7174407313243	0	0.9399999998679526	0	44.99672154487278	-10.05930529318561	0	59.99836936061139	1.047169091170354	-5.012877586873223	0	0	44.99672154487278	-10.05930529318561	0	59.99836936061139	1.047169091170354	-5.012877586873223	0	0	-26.6478470008002	15.22235458034743	37.08005033449314	6.162611692943115	-15.28015070580887	-26.84040893571703	0.02794012824939245	1.186032884316234	0	0	0	-12.33618389192682	0	88.83735881976287	1.186032884316234	0	0
0.9399999999999999	-12.98093925524459	-10.3568424148573	-102.9073249324241	0	0.9399999998679526	0	44.99672258255257	-10.05923966894383	0	59.99836980036656	1.047169098845529	-5.012858997248651	0	0	44.99672258255257	-10.05923966894383	0	59.99836980036656	1.047169098845529	-5.012858997248651	0	0	-27.05425801007772	15.3174249167206	37.58044006763183	6.323360207387673	-15.45216431546797	-27.09439975291755	0.02790944460302382	1.185771713572475	0	0	0	-12.33661560181072	0	88.83761479952371	1.185771713572475	0	0
